# This file uses centimeters as units for non-parametric coordinates.

mtllib ship.mtl
g default
v -0.145976 0.084280 0.261578
v -0.087180 0.084280 -0.261030
v -0.000000 0.000000 -0.229332
v 0.000000 0.116059 -0.271249
v 0.000000 0.116059 0.271249
v 0.000000 0.069381 0.257182
v -0.120274 0.069381 0.257182
v 0.000000 -0.139004 0.200103
v 0.000000 0.069381 0.221772
v -0.120274 0.069381 0.221772
v -0.000000 -0.000060 0.201551
v 0.000000 -0.138940 0.160297
v -0.015696 -0.139067 0.200103
v -0.009374 -0.139067 -0.177462
v 0.000000 -0.139067 -0.177462
v -0.135369 -0.144830 0.151703
v -0.080846 -0.123431 -0.131294
v -0.199481 0.019585 0.197780
v -0.119134 -0.001814 -0.193930
v -0.060137 0.069381 0.221772
v -0.043590 0.100169 -0.266139
v -0.072988 0.100169 0.266413
v -0.060137 0.069381 0.257182
v -0.277103 0.198203 -0.226215
v -0.306501 0.198203 0.181215
v -0.275276 0.177808 -0.221105
v -0.304787 0.177808 0.176380
v -0.556749 0.076371 -0.172987
v -0.586147 0.076371 0.093279
v -0.551899 0.070944 -0.167878
v -0.581411 0.070944 0.088444
v -0.003025 -0.312958 0.154910
v 0.000000 -0.312958 0.154908
v 0.000000 -0.356445 -0.110522
v -0.000000 -0.000060 0.187233
v -0.060137 0.069381 0.207454
v 0.000000 0.069381 0.207454
v -0.153066 0.146130 -0.247422
v -0.182464 0.146130 0.226471
v -0.220430 0.128128 0.221635
v -0.203209 0.070078 -0.248010
v -0.131272 0.106204 -0.251671
v -0.197897 0.128128 -0.010339
v -0.225320 0.152968 -0.231709
v -0.155685 0.144440 -0.246662
v -0.136782 0.109809 -0.250347
v -0.202071 0.073397 -0.248067
v -0.218357 0.150371 -0.233032
v -0.161776 0.140446 -0.192203
v -0.148134 0.115453 -0.194863
v -0.179514 0.116806 -0.188345
v -0.207005 0.144726 -0.182367
v 0.080846 -0.123431 -0.131294
v 0.135369 -0.144830 0.151703
v 0.199481 0.019585 0.197780
v 0.119134 -0.001814 -0.193930
v 0.015696 -0.139067 0.200103
v 0.003025 -0.312958 0.154910
v 0.009374 -0.139067 -0.177462
v 0.120274 0.069381 0.221772
v 0.586146 0.076371 0.093279
v 0.556749 0.076371 -0.172987
v 0.551899 0.070944 -0.167878
v 0.581411 0.070944 0.088444
v 0.060137 0.069381 0.221772
v 0.060137 0.069381 0.257182
v 0.120274 0.069381 0.257182
v 0.072988 0.100169 0.266413
v 0.060137 0.069381 0.207454
v 0.145976 0.084280 0.261578
v 0.043590 0.100169 -0.266139
v 0.087180 0.084280 -0.261030
v 0.304787 0.177808 0.176380
v 0.306501 0.198203 0.181215
v 0.153066 0.146130 -0.247422
v 0.182464 0.146130 0.226471
v 0.131272 0.106204 -0.251671
v 0.220430 0.128128 0.221635
v 0.197897 0.128128 -0.010339
v 0.277103 0.198203 -0.226215
v 0.275276 0.177808 -0.221105
v 0.225320 0.152968 -0.231709
v 0.203209 0.070078 -0.248010
v 0.161776 0.140446 -0.192203
v 0.148134 0.115453 -0.194863
v 0.179514 0.116806 -0.188345
v 0.207005 0.144726 -0.182367
v 0.136782 0.109809 -0.250347
v 0.155685 0.144440 -0.246662
v 0.202071 0.073397 -0.248067
v 0.218357 0.150371 -0.233032
v 0.000000 0.116059 -0.271249
v -0.043590 0.100169 -0.266139
v 0.043590 0.100169 -0.266139
v -0.000000 0.000000 -0.229332
vt 0.746487 0.948493
vt 0.734719 0.931653
vt 0.737661 0.956843
vt 0.737073 0.931653
vt 0.734719 0.931653
vt 0.737073 0.931653
vt 0.737661 0.956843
vt 0.746487 0.948493
vt 0.559722 0.723962
vt 0.571956 0.828334
vt 0.477954 0.845328
vt 0.490189 0.700861
vt 0.440966 0.868857
vt 0.440966 0.676114
vt 0.194729 0.337114
vt 0.194765 0.328141
vt 0.294185 0.335385
vt 0.294185 0.337114
vt 0.075588 0.268349
vt 0.067069 0.253654
vt 0.294185 0.338844
vt 0.194765 0.346088
vt 0.075588 0.302732
vt 0.057985 0.295384
vt 0.198060 0.259719
vt 0.104058 0.223064
vt 0.075588 0.405880
vt 0.067069 0.420575
vt 0.075588 0.337114
vt 0.048900 0.337114
vt 0.031707 0.232793
vt 0.042000 0.211086
vt 0.198060 0.414510
vt 0.104058 0.451165
vt 0.057985 0.378845
vt 0.075588 0.371497
vt 0.001935 0.161876
vt 0.013596 0.162856
vt 0.042000 0.463143
vt 0.031707 0.441436
vt 0.071591 0.001992
vt 0.074694 0.004700
vt 0.013596 0.511373
vt 0.001935 0.512353
vt 0.074694 0.669529
vt 0.071591 0.672237
vt 0.136642 0.798336
vt 0.095779 0.815364
vt 0.099393 0.676114
vt 0.167815 0.693964
vt 0.132742 0.819241
vt 0.251847 0.888006
vt 0.172443 0.888006
vt 0.132742 0.956771
vt 0.132742 0.853623
vt 0.132742 0.922389
vt 0.272633 0.853623
vt 0.259573 0.853623
vt 0.259573 0.819241
vt 0.272633 0.819241
vt 0.272633 0.888006
vt 0.259573 0.888006
vt 0.277914 0.853623
vt 0.277914 0.888006
vt 0.259573 0.922388
vt 0.272633 0.922388
vt 0.277914 0.922388
vt 0.272633 0.956771
vt 0.259573 0.956771
vt 0.297242 0.991875
vt 0.284183 0.991875
vt 0.305234 0.872734
vt 0.319915 0.872770
vt 0.298057 0.700802
vt 0.273194 0.798696
vt 0.173774 0.815364
vt 0.173774 0.676114
vt 0.824671 0.320306
vt 0.700388 0.325666
vt 0.700388 0.320306
vt 0.620878 0.320306
vt 0.572692 0.370151
vt 0.700388 0.314947
vt 0.572692 0.270462
vt 0.621915 0.388420
vt 0.691448 0.366529
vt 0.563607 0.345229
vt 0.563607 0.295384
vt 0.621915 0.252193
vt 0.691448 0.274084
vt 0.537330 0.407820
vt 0.560158 0.395360
vt 0.537330 0.232793
vt 0.560158 0.245253
vt 0.558096 0.398510
vt 0.538296 0.409318
vt 0.538296 0.231295
vt 0.558096 0.242103
vt 0.580812 0.436489
vt 0.578914 0.435838
vt 0.533421 0.449130
vt 0.534905 0.445149
vt 0.533421 0.191483
vt 0.534905 0.195463
vt 0.578914 0.204775
vt 0.580812 0.204124
vt 0.519219 0.477692
vt 0.507558 0.478737
vt 0.507558 0.161876
vt 0.519219 0.162921
vt 0.538133 0.438659
vt 0.554096 0.422941
vt 0.577214 0.638621
vt 0.580317 0.635848
vt 0.554096 0.217671
vt 0.538133 0.201954
vt 0.577214 0.001992
vt 0.580317 0.004764
vt 0.540580 0.412800
vt 0.540580 0.227813
vt 0.554869 0.405000
vt 0.554869 0.235612
vt 0.372991 0.872735
vt 0.374720 0.872734
vt 0.372991 0.970628
vt 0.371261 0.872734
vt 0.499414 0.362037
vt 0.303003 0.378845
vt 0.301220 0.337114
vt 0.501299 0.337114
vt 0.492511 0.424628
vt 0.317734 0.441436
vt 0.499414 0.312192
vt 0.303003 0.295384
vt 0.484690 0.495545
vt 0.334425 0.512353
vt 0.317734 0.232793
vt 0.492511 0.249601
vt 0.465059 0.655429
vt 0.366857 0.672237
vt 0.334425 0.161876
vt 0.484690 0.178684
vt 0.366857 0.001992
vt 0.465059 0.018800
vt 0.965910 0.902567
vt 0.969361 0.927776
vt 0.776618 0.894160
vt 0.791349 0.851592
vt 0.876904 0.864475
vt 0.954637 0.820234
vt 0.958547 0.848796
vt 0.808040 0.803362
vt 0.964559 0.861438
vt 0.935006 0.662078
vt 0.840472 0.645205
vt 0.838688 0.642498
vt 0.936890 0.659306
vt 0.394928 0.960389
vt 0.380726 0.878746
vt 0.428117 0.872734
vt 0.753649 0.933012
vt 0.773449 0.931653
vt 0.770222 0.952116
vt 0.755933 0.953097
vt 0.636433 0.931653
vt 0.635592 0.968981
vt 0.613566 0.956084
vt 0.615970 0.938143
vt 0.692829 0.931653
vt 0.697855 0.967484
vt 0.677770 0.964002
vt 0.674143 0.938143
vt 0.422772 0.821009
vt 0.353239 0.844110
vt 0.341005 0.699643
vt 0.435007 0.716637
vt 0.304016 0.676114
vt 0.304016 0.868857
vt 0.048956 0.798336
vt 0.017783 0.693964
vt 0.086205 0.676114
vt 0.089819 0.815364
vt 0.350394 0.991875
vt 0.327722 0.872770
vt 0.342403 0.872734
vt 0.363454 0.991875
vt 0.126218 0.933802
vt 0.001935 0.958491
vt 0.001935 0.819241
vt 0.101355 0.835908
vt 0.767207 0.667706
vt 0.678201 0.705798
vt 0.592647 0.718682
vt 0.577915 0.676114
vt 0.770659 0.642498
vt 0.765857 0.708836
vt 0.755934 0.750039
vt 0.609337 0.766912
vt 0.759845 0.721477
vt 0.736303 0.908195
vt 0.641769 0.925068
vt 0.639986 0.927776
vt 0.738188 0.910968
vt 0.449825 0.872734
vt 0.483014 0.960389
vt 0.435623 0.954378
vt 0.780151 0.951737
vt 0.782435 0.931653
vt 0.796724 0.932633
vt 0.799951 0.953097
vt 0.666722 0.968981
vt 0.646258 0.962490
vt 0.643854 0.944549
vt 0.665881 0.931653
vt 0.723117 0.967484
vt 0.704431 0.960994
vt 0.708058 0.935135
vt 0.728143 0.931653
vt 0.509451 0.872734
vt 0.549152 0.907116
vt 0.509451 0.941499
vt 0.509451 0.907116
vt 0.606620 0.988923
vt 0.581698 0.998008
vt 0.556776 0.988923
vt 0.581698 0.931653
vt 0.490521 0.941499
vt 0.497978 0.907116
vt 0.503259 0.907116
vt 0.495801 0.941499
vt 0.490521 0.872734
vt 0.495801 0.872734
vn -0.921926 -0.340722 -0.184288
vn -0.921926 -0.340722 -0.184288
vn -0.921926 -0.340722 -0.184288
vn -0.921926 -0.340722 -0.184288
vn 0.000982 -0.251467 0.967866
vn 0.000982 -0.251467 0.967865
vn 0.000982 -0.251467 0.967865
vn 0.000982 -0.251467 0.967865
vn -0.051121 -0.998005 -0.037039
vn -0.051121 -0.998005 -0.037039
vn -0.051121 -0.998005 -0.037039
vn -0.051121 -0.998005 -0.037039
vn -0.003235 -0.284747 0.958597
vn -0.003235 -0.284747 0.958597
vn -0.003235 -0.284747 0.958597
vn -0.745857 -0.660778 -0.084078
vn -0.745857 -0.660778 -0.084078
vn -0.745857 -0.660778 -0.084078
vn -0.745857 -0.660778 -0.084078
vn 0.000000 -1.000000 0.000000
vn 0.000000 -1.000000 0.000000
vn 0.000000 -1.000000 0.000000
vn 0.000000 -1.000000 0.000000
vn 0.866110 0.499853 0.000422
vn 0.866110 0.499853 0.000422
vn 0.866110 0.499853 0.000422
vn 0.866110 0.499853 0.000422
vn 0.000000 -0.279588 0.960120
vn 0.000000 -0.279588 0.960120
vn 0.000000 -0.279588 0.960120
vn 0.000000 -1.000000 0.000000
vn 0.000000 -1.000000 0.000000
vn 0.000000 -1.000000 0.000000
vn 0.000000 -1.000000 0.000000
vn -0.000399 -0.288066 0.957611
vn -0.000399 -0.288066 0.957611
vn -0.000399 -0.288066 0.957611
vn -0.000399 -0.288066 0.957611
vn -0.998326 -0.056840 -0.010668
vn -0.998326 -0.056840 -0.010668
vn -0.998326 -0.056840 -0.010668
vn -0.998326 -0.056840 -0.010668
vn 0.000000 -0.294308 -0.955711
vn 0.000000 -0.294308 -0.955711
vn 0.000000 -0.294308 -0.955711
vn 0.000131 -0.986843 0.161680
vn 0.000131 -0.986843 0.161680
vn 0.000131 -0.986843 0.161680
vn 0.755929 0.654654 0.000000
vn 0.755929 0.654654 0.000000
vn 0.755929 0.654654 0.000000
vn 0.755929 0.654654 0.000000
vn 0.000000 -1.000000 0.000000
vn 0.000000 -1.000000 0.000000
vn 0.000000 -1.000000 0.000000
vn 0.000000 -1.000000 0.000000
vn 0.009486 -0.259664 0.965652
vn 0.009486 -0.259664 0.965652
vn 0.009486 -0.259664 0.965652
vn 0.009486 -0.259664 0.965652
vn -0.369347 -0.415691 0.831134
vn -0.369347 -0.415691 0.831134
vn -0.369347 -0.415691 0.831134
vn -0.369347 -0.415691 0.831134
vn 0.013581 -0.339660 -0.940450
vn 0.013581 -0.339660 -0.940450
vn 0.013581 -0.339660 -0.940450
vn -0.000628 -0.286312 0.958136
vn -0.000628 -0.286312 0.958136
vn -0.000628 -0.286312 0.958136
vn -0.000628 -0.286312 0.958136
vn 0.002413 -0.349606 -0.936894
vn 0.002413 -0.349606 -0.936894
vn 0.002413 -0.349606 -0.936894
vn 0.002413 -0.349606 -0.936894
vn -0.862437 0.485657 -0.142613
vn -0.862437 0.485657 -0.142613
vn -0.862438 0.485657 -0.142613
vn -0.862437 0.485657 -0.142613
vn -0.482862 -0.474451 -0.736030
vn -0.482862 -0.474451 -0.736030
vn -0.482862 -0.474451 -0.736030
vn -0.482862 -0.474451 -0.736030
vn -0.263016 0.964765 -0.007192
vn -0.263016 0.964765 -0.007192
vn -0.263016 0.964765 -0.007192
vn -0.263016 0.964765 -0.007192
vn -0.134790 -0.376877 0.916403
vn -0.134790 -0.376877 0.916403
vn -0.134790 -0.376877 0.916403
vn -0.134790 -0.376877 0.916403
vn 0.385140 0.922584 0.022500
vn 0.385140 0.922584 0.022500
vn 0.385015 0.922602 0.023866
vn 0.385020 0.922601 0.023812
vn -0.159471 0.047076 -0.986080
vn -0.159471 0.047076 -0.986080
vn -0.159471 0.047076 -0.986080
vn -0.159471 0.047076 -0.986080
vn -0.471349 -0.880521 -0.050134
vn -0.471349 -0.880521 -0.050134
vn -0.471349 -0.880521 -0.050134
vn -0.471978 -0.880392 -0.046340
vn -0.472152 -0.880354 -0.045282
vn -0.198248 0.392771 0.898014
vn -0.198248 0.392771 0.898014
vn -0.232207 0.336275 0.912688
vn -0.296744 0.219053 0.929494
vn -0.397359 0.917008 -0.034679
vn -0.397359 0.917008 -0.034679
vn -0.397359 0.917008 -0.034679
vn -0.397359 0.917008 -0.034679
vn -0.024037 -0.373236 -0.927425
vn -0.024037 -0.373236 -0.927425
vn -0.024037 -0.373236 -0.927425
vn -0.024037 -0.373236 -0.927425
vn 0.358405 -0.933005 0.032355
vn 0.358405 -0.933005 0.032355
vn 0.358405 -0.933005 0.032355
vn 0.358405 -0.933005 0.032355
vn 0.384849 0.922623 0.025675
vn 0.384849 0.922623 0.025675
vn -0.354597 0.100651 0.929586
vn -0.354597 0.100651 0.929586
vn -0.249270 -0.169549 -0.953477
vn -0.249270 -0.169549 -0.953477
vn -0.249270 -0.169549 -0.953477
vn -0.249270 -0.169549 -0.953477
vn -0.958014 -0.272865 0.088058
vn -0.958014 -0.272865 0.088058
vn -0.958014 -0.272865 0.088058
vn 0.447674 -0.870917 0.202709
vn 0.447674 -0.870917 0.202709
vn 0.447674 -0.870917 0.202709
vn -0.208662 -0.003052 -0.977983
vn -0.203658 -0.006976 -0.979017
vn -0.209794 -0.002164 -0.977743
vn -0.472985 -0.880154 -0.040171
vn -0.472985 -0.880154 -0.040171
vn -0.472985 -0.880154 -0.040171
vn -0.212507 -0.000033 -0.977160
vn -0.256320 -0.037118 -0.965879
vn -0.256320 -0.037118 -0.965879
vn -0.256320 -0.037118 -0.965879
vn -0.256320 -0.037118 -0.965879
vn -0.103689 0.115229 -0.987913
vn -0.103689 0.115229 -0.987913
vn -0.103689 0.115229 -0.987912
vn -0.103689 0.115229 -0.987913
vn -0.220150 -0.095426 -0.970787
vn -0.220150 -0.095426 -0.970787
vn -0.220150 -0.095426 -0.970787
vn -0.220150 -0.095426 -0.970787
vn -0.178966 0.147675 -0.972709
vn -0.178966 0.147675 -0.972709
vn -0.178966 0.147675 -0.972709
vn -0.178966 0.147675 -0.972709
vn -0.875907 -0.464072 -0.132001
vn -0.875907 -0.464072 -0.132001
vn -0.875907 -0.464072 -0.132001
vn -0.875907 -0.464072 -0.132001
vn -0.347899 0.874314 -0.338439
vn -0.347899 0.874314 -0.338439
vn -0.347899 0.874314 -0.338439
vn -0.347899 0.874314 -0.338439
vn -0.112215 -0.990028 -0.085160
vn -0.112215 -0.990028 -0.085160
vn -0.112215 -0.990028 -0.085160
vn -0.112215 -0.990028 -0.085160
vn 0.817136 0.420095 -0.394727
vn 0.817136 0.420095 -0.394726
vn 0.817136 0.420095 -0.394727
vn 0.817136 0.420095 -0.394727
vn 0.921926 -0.340722 -0.184288
vn 0.921926 -0.340722 -0.184288
vn 0.921926 -0.340722 -0.184288
vn 0.921925 -0.340722 -0.184288
vn -0.000982 -0.251467 0.967865
vn -0.000982 -0.251467 0.967865
vn -0.000982 -0.251467 0.967865
vn -0.000982 -0.251467 0.967866
vn 0.051121 -0.998005 -0.037039
vn 0.051121 -0.998005 -0.037039
vn 0.051121 -0.998005 -0.037039
vn 0.051121 -0.998005 -0.037039
vn 0.003235 -0.284747 0.958597
vn 0.003235 -0.284747 0.958597
vn 0.003235 -0.284747 0.958597
vn 0.745860 -0.660775 -0.084078
vn 0.745860 -0.660775 -0.084078
vn 0.745860 -0.660775 -0.084078
vn 0.745860 -0.660775 -0.084078
vn 0.000000 -1.000000 0.000000
vn 0.000000 -1.000000 0.000000
vn 0.000000 -1.000000 0.000000
vn 0.000000 -1.000000 0.000000
vn -0.866110 0.499853 0.000422
vn -0.866110 0.499853 0.000422
vn -0.866110 0.499853 0.000422
vn -0.866110 0.499853 0.000422
vn 0.000000 -0.279588 0.960120
vn 0.000000 -0.279588 0.960120
vn 0.000000 -0.279588 0.960120
vn 0.000000 -1.000000 0.000000
vn 0.000000 -1.000000 0.000000
vn 0.000000 -1.000000 0.000000
vn 0.000000 -1.000000 0.000000
vn 0.000399 -0.288066 0.957611
vn 0.000399 -0.288066 0.957611
vn 0.000399 -0.288066 0.957611
vn 0.000399 -0.288066 0.957611
vn 0.998326 -0.056840 -0.010668
vn 0.998326 -0.056840 -0.010668
vn 0.998326 -0.056840 -0.010668
vn 0.998326 -0.056840 -0.010668
vn 0.000000 -0.294308 -0.955711
vn 0.000000 -0.294308 -0.955711
vn 0.000000 -0.294308 -0.955711
vn -0.000132 -0.986843 0.161680
vn -0.000132 -0.986843 0.161680
vn -0.000132 -0.986843 0.161680
vn -0.755929 0.654654 0.000000
vn -0.755929 0.654654 0.000000
vn -0.755929 0.654654 0.000000
vn -0.755929 0.654654 0.000000
vn 0.000000 -1.000000 0.000000
vn 0.000000 -1.000000 0.000000
vn 0.000000 -1.000000 0.000000
vn 0.000000 -1.000000 0.000000
vn -0.009485 -0.259665 0.965652
vn -0.009485 -0.259665 0.965652
vn -0.009485 -0.259665 0.965652
vn -0.009485 -0.259665 0.965652
vn 0.369347 -0.415691 0.831134
vn 0.369347 -0.415691 0.831134
vn 0.369347 -0.415691 0.831134
vn 0.369347 -0.415691 0.831134
vn -0.013581 -0.339660 -0.940450
vn -0.013581 -0.339660 -0.940450
vn -0.013581 -0.339660 -0.940450
vn 0.000628 -0.286312 0.958136
vn 0.000628 -0.286312 0.958136
vn 0.000628 -0.286312 0.958136
vn 0.000628 -0.286312 0.958136
vn -0.002413 -0.349606 -0.936894
vn -0.002413 -0.349606 -0.936894
vn -0.002413 -0.349606 -0.936894
vn -0.002413 -0.349606 -0.936894
vn 0.862437 0.485658 -0.142613
vn 0.862437 0.485657 -0.142613
vn 0.862437 0.485658 -0.142613
vn 0.862437 0.485657 -0.142613
vn 0.482862 -0.474451 -0.736030
vn 0.482862 -0.474451 -0.736030
vn 0.482862 -0.474451 -0.736030
vn 0.482862 -0.474451 -0.736030
vn 0.263016 0.964765 -0.007192
vn 0.263016 0.964765 -0.007192
vn 0.263016 0.964765 -0.007192
vn 0.263016 0.964765 -0.007192
vn 0.134790 -0.376877 0.916403
vn 0.134790 -0.376877 0.916403
vn 0.134790 -0.376877 0.916403
vn 0.134790 -0.376877 0.916403
vn -0.385140 0.922584 0.022500
vn -0.385020 0.922601 0.023812
vn -0.385015 0.922602 0.023866
vn -0.385140 0.922584 0.022500
vn 0.159471 0.047076 -0.986080
vn 0.159471 0.047076 -0.986080
vn 0.159471 0.047076 -0.986080
vn 0.159471 0.047076 -0.986080
vn 0.471349 -0.880521 -0.050134
vn 0.472152 -0.880354 -0.045282
vn 0.471978 -0.880392 -0.046340
vn 0.471349 -0.880521 -0.050134
vn 0.471349 -0.880521 -0.050134
vn 0.198248 0.392772 0.898014
vn 0.296744 0.219053 0.929494
vn 0.232207 0.336275 0.912688
vn 0.198248 0.392772 0.898013
vn 0.397359 0.917008 -0.034679
vn 0.397359 0.917008 -0.034679
vn 0.397359 0.917008 -0.034679
vn 0.397359 0.917008 -0.034679
vn 0.024036 -0.373238 -0.927424
vn 0.024036 -0.373238 -0.927424
vn 0.024036 -0.373238 -0.927424
vn 0.024036 -0.373238 -0.927424
vn -0.358405 -0.933005 0.032355
vn -0.358405 -0.933005 0.032355
vn -0.358405 -0.933005 0.032355
vn -0.358405 -0.933005 0.032355
vn -0.384849 0.922623 0.025675
vn -0.384849 0.922623 0.025675
vn 0.354597 0.100651 0.929586
vn 0.354597 0.100651 0.929586
vn 0.249270 -0.169550 -0.953477
vn 0.249270 -0.169550 -0.953476
vn 0.249270 -0.169550 -0.953477
vn 0.249270 -0.169550 -0.953477
vn 0.958014 -0.272865 0.088058
vn 0.958014 -0.272865 0.088058
vn 0.958014 -0.272865 0.088058
vn -0.447674 -0.870917 0.202709
vn -0.447674 -0.870917 0.202709
vn -0.447674 -0.870917 0.202709
vn 0.208662 -0.003052 -0.977983
vn 0.209794 -0.002164 -0.977743
vn 0.203657 -0.006976 -0.979017
vn 0.472985 -0.880154 -0.040171
vn 0.472985 -0.880154 -0.040171
vn 0.472985 -0.880154 -0.040171
vn 0.212507 -0.000033 -0.977160
vn 0.256320 -0.037119 -0.965879
vn 0.256320 -0.037119 -0.965879
vn 0.256320 -0.037119 -0.965879
vn 0.256320 -0.037119 -0.965879
vn 0.103693 0.115232 -0.987912
vn 0.103693 0.115232 -0.987912
vn 0.103693 0.115232 -0.987912
vn 0.103693 0.115232 -0.987912
vn 0.220149 -0.095428 -0.970787
vn 0.220149 -0.095428 -0.970787
vn 0.220149 -0.095428 -0.970787
vn 0.220149 -0.095428 -0.970787
vn 0.178961 0.147677 -0.972710
vn 0.178961 0.147677 -0.972710
vn 0.178961 0.147677 -0.972710
vn 0.178961 0.147677 -0.972710
vn 0.875907 -0.464072 -0.132001
vn 0.875907 -0.464072 -0.132001
vn 0.875907 -0.464072 -0.132001
vn 0.875907 -0.464072 -0.132001
vn 0.347899 0.874314 -0.338439
vn 0.347899 0.874314 -0.338439
vn 0.347899 0.874314 -0.338439
vn 0.347899 0.874314 -0.338439
vn 0.112215 -0.990028 -0.085160
vn 0.112215 -0.990028 -0.085160
vn 0.112215 -0.990028 -0.085160
vn 0.112215 -0.990028 -0.085160
vn -0.817136 0.420095 -0.394727
vn -0.817136 0.420095 -0.394726
vn -0.817136 0.420095 -0.394726
vn -0.817136 0.420095 -0.394726
vn 0.000000 -0.279588 0.960120
vn 0.000000 -0.279588 0.960120
vn 0.000000 -0.279588 0.960120
vn 0.000000 -0.279588 0.960120
vn 0.000000 -0.339692 -0.940537
vn 0.000000 -0.339692 -0.940537
vn 0.000000 -0.339692 -0.940537
vn 0.000000 -0.339692 -0.940537
vn 0.000000 0.000000 0.000000
vn 0.000000 0.000000 0.000000
vn 0.000000 0.000000 0.000000
vn 0.000000 0.000000 0.000000
vn 0.000000 0.000000 0.000000
vn 0.000000 0.000000 0.000000
vn 0.000000 0.000000 0.000000
vn 0.000000 0.000000 0.000000
vn 0.000000 0.000000 0.000000
vn 0.000000 0.000000 0.000000
vn 0.000000 0.000000 0.000000
vn 0.000000 0.000000 0.000000
vn 0.000000 0.000000 0.000000
vn 0.000000 0.000000 0.000000
vn 0.000000 0.000000 0.000000
vn 0.000000 0.000000 0.000000
s off
g pCylinder1
usemtl initialShadingGroup
f 17/9/1 16/10/2 18/11/3 19/12/4
f 8/15/5 13/16/6 32/17/7 33/18/8
f 17/47/9 14/48/10 13/49/11 16/50/12
f 10/51/13 12/52/14 11/53/15
f 29/156/16 28/157/17 30/154/18 31/155/19
f 20/57/20 23/58/21 7/59/22 10/60/23
f 10/70/24 7/71/25 8/72/26 12/73/27
f 11/53/28 20/55/29 10/51/30
f 23/58/31 20/57/32 9/61/33 6/62/34
f 22/24/35 23/23/36 6/29/37 5/30/38
f 34/74/39 32/75/40 13/76/41 14/77/42
f 34/78/43 14/79/44 15/80/45
f 33/123/46 32/124/47 34/125/48
f 20/227/49 11/228/50 35/229/51 36/230/52
f 9/61/53 20/57/54 36/63/55 37/64/56
f 7/19/57 1/20/58 13/16/59 8/15/60
f 16/25/61 13/16/62 1/20/63 18/26/64
f 21/87/65 3/81/66 2/82/67
f 7/19/68 23/23/69 22/24/70 1/20/71
f 3/81/72 15/80/73 14/79/74 2/82/75
f 1/13/76 2/14/77 19/12/78 18/11/79
f 19/85/80 2/82/81 14/79/82 17/86/83
f 21/127/84 22/128/85 5/129/86 4/130/87
f 27/38/88 25/37/89 29/41/90 31/42/91
s 1
f 22/128/92 21/127/93 38/131/94 39/132/95
s off
f 38/91/96 21/87/97 2/82/98 42/92/99
s 2
f 42/145/100 2/146/101 1/147/102 40/148/103 43/149/104
s 3
f 1/20/105 22/24/106 39/31/107 40/32/108
s off
f 25/136/109 24/135/110 28/139/111 29/140/112
f 28/113/113 24/108/114 26/107/115 30/114/116
f 30/154/117 26/150/118 27/152/119 31/155/120
s 1
f 39/132/95 38/131/94 24/135/121 25/136/122
s 3
f 40/32/108 39/31/107 25/37/123 27/38/124
s off
f 38/91/125 44/101/126 26/107/127 24/108/128
f 43/158/129 44/159/130 41/160/131
f 42/145/132 43/149/133 41/153/134
s 4
f 49/119/135 50/121/136 51/112/137
s 2
f 26/150/138 44/151/139 43/149/104 40/148/103 27/152/140
s 4
f 52/111/141 49/119/135 51/112/137
s off
f 38/91/142 42/92/143 46/95/144 45/96/145
f 42/92/146 41/99/147 47/100/148 46/95/149
f 44/101/150 38/91/151 45/96/152 48/102/153
f 41/99/154 44/101/155 48/102/156 47/100/157
f 45/161/158 46/162/159 50/163/160 49/164/161
f 46/165/162 47/166/163 51/167/164 50/168/165
f 48/169/166 45/170/167 49/171/168 52/172/169
f 47/100/170 48/102/171 52/111/172 51/112/173
f 53/173/174 56/174/175 55/175/176 54/176/177
f 8/15/178 33/18/179 58/21/180 57/22/181
f 53/179/182 54/180/183 57/181/184 59/182/185
f 60/54/186 11/53/187 12/52/188
f 61/202/189 64/201/190 63/200/191 62/203/192
f 65/66/193 60/68/194 67/69/195 66/65/196
f 60/183/197 12/184/198 8/185/199 67/186/200
f 11/53/201 60/54/202 65/56/203
f 66/65/204 6/62/205 9/61/206 65/66/207
f 68/35/208 5/30/209 6/29/210 66/36/211
f 34/187/212 59/188/213 57/189/214 58/190/215
f 34/78/216 15/80/217 59/83/218
f 33/123/219 34/125/220 58/126/221
f 65/231/222 69/232/223 35/229/224 11/228/225
f 9/61/226 37/64/227 69/67/228 65/66/229
f 67/27/230 8/15/231 57/22/232 70/28/233
f 54/33/234 55/34/235 70/28/236 57/22/237
f 71/88/238 72/84/239 3/81/240
f 67/27/241 70/28/242 68/35/243 66/36/244
f 3/81/245 72/84/246 59/83/247 15/80/248
f 70/177/249 55/175/250 56/174/251 72/178/252
f 56/89/253 53/90/254 59/83/255 72/84/256
f 71/133/257 4/130/258 5/129/259 68/134/260
f 73/43/261 64/45/262 61/46/263 74/44/264
s 5
f 68/134/265 76/137/266 75/138/267 71/133/268
s off
f 75/93/269 77/94/270 72/84/271 71/88/272
s 6
f 77/191/273 79/192/274 78/193/275 70/194/276 72/195/277
s 7
f 70/28/278 78/39/279 76/40/280 68/35/281
s off
f 74/141/282 61/143/283 62/144/284 80/142/285
f 62/117/286 63/118/287 81/110/288 80/109/289
f 63/200/290 64/201/291 73/198/292 81/197/293
s 5
f 76/137/266 74/141/294 80/142/295 75/138/267
s 7
f 78/39/279 73/43/296 74/44/297 76/40/280
s off
f 75/93/298 80/109/299 81/110/300 82/103/301
f 79/204/302 83/205/303 82/206/304
f 77/191/305 83/196/306 79/192/307
s 8
f 84/120/308 86/115/309 85/122/310
s 6
f 81/197/311 73/198/312 78/193/275 79/192/274 82/199/313
s 8
f 87/116/314 86/115/309 84/120/308
s off
f 75/93/315 89/97/316 88/98/317 77/94/318
f 77/94/319 88/98/320 90/105/321 83/106/322
f 82/103/323 91/104/324 89/97/325 75/93/326
f 83/106/327 90/105/328 91/104/329 82/103/330
f 89/207/331 84/208/332 85/209/333 88/210/334
f 88/211/335 85/212/336 86/213/337 90/214/338
f 91/215/339 87/216/340 84/217/341 89/218/342
f 90/105/343 86/115/344 87/116/345 91/104/346
f 36/219/347 35/220/348 69/221/349 37/222/350
f 93/223/351 92/224/352 94/225/353 95/226/354
f 21/2/355 4/4/356 92/6/357 93/5/358
f 4/4/359 71/3/360 94/7/361 92/6/362
f 71/3/363 3/1/364 95/8/365 94/7/366
f 3/1/367 21/2/368 93/5/369 95/8/370
