# This file uses centimeters as units for non-parametric coordinates.

mtllib why.mtl
g why:default1
v 0.236426 0.049413 0.319928
v -0.002051 0.049413 -0.054486
v -0.238770 0.049413 0.319928
v -0.343652 0.049413 0.319928
v -0.048926 0.049413 -0.145893
v -0.048926 0.049413 -0.479877
v 0.041309 0.049413 -0.479877
v 0.041309 0.049413 -0.145893
v 0.343652 0.049413 0.319928
v -0.238770 0.049413 0.479877
v -0.343652 0.049413 0.479877
v 0.343652 0.049413 0.479877
v 0.236426 0.049413 0.479877
v -0.048926 -0.049413 -0.479877
v 0.041309 -0.049413 -0.479877
v 0.041309 -0.049413 -0.145893
v -0.048926 -0.049413 -0.145893
v 0.343652 -0.049413 0.319928
v 0.236426 -0.049413 0.319928
v -0.002051 -0.049413 -0.054486
v -0.238770 -0.049413 0.319928
v -0.343652 -0.049413 0.319928
v -0.238770 -0.049413 0.479877
v -0.343652 -0.049413 0.479877
v 0.343652 -0.049413 0.479877
v 0.236426 -0.049413 0.479877
vt 0.843990 1.000000
vt 0.497016 0.531868
vt 0.152600 1.000000
vt 0.000000 1.000000
vt 0.428815 0.417582
vt 0.428815 0.000000
vt 0.560102 0.000000
vt 0.560102 0.417582
vt 0.937059 0.916667
vt 0.000000 0.000000
vt 1.000000 0.000000
vt 1.000000 1.000000
vt 0.000000 1.000000
vt 0.000000 0.000000
vt 1.000000 0.000000
vt 1.000000 1.000000
vt 0.000000 1.000000
vt 0.428815 0.000000
vt 0.560102 0.000000
vt 0.560102 0.417582
vt 0.428815 0.417582
vt 0.937059 0.916667
vt 0.843990 1.000000
vt 0.497016 0.531868
vt 0.152600 1.000000
vt 0.000000 1.000000
vt 0.000000 0.000000
vt 1.000000 0.000000
vt 1.000000 1.000000
vt 0.000000 1.000000
vt 0.000000 0.000000
vt 1.000000 0.000000
vt 1.000000 1.000000
vt 0.000000 1.000000
vt 0.428815 0.000000
vt 0.560102 0.000000
vt 0.560102 0.417582
vt 0.428815 0.417582
vt 0.843990 1.000000
vt 0.497016 0.531868
vt 0.152600 1.000000
vt 0.000000 1.000000
vt 0.937059 0.916667
vt 1.000000 0.000000
vt 1.000000 1.000000
vt 0.000000 1.000000
vt 0.000000 0.000000
vt 1.000000 0.000000
vt 1.000000 1.000000
vt 0.000000 1.000000
vt 0.000000 0.000000
vn 0.000000 -1.000000 0.000000
vn 0.000000 -1.000000 0.000000
vn 0.000000 -1.000000 0.000000
vn 0.000000 -1.000000 0.000000
vn 0.000000 -1.000000 0.000000
vn 0.000000 -1.000000 0.000000
vn 0.000000 -1.000000 0.000000
vn 0.000000 -1.000000 0.000000
vn 0.000000 -1.000000 0.000000
vn 0.000000 -1.000000 0.000000
vn 0.000000 -1.000000 0.000000
vn 0.000000 -1.000000 0.000000
vn 0.000000 -1.000000 0.000000
vn 0.000000 -1.000000 0.000000
vn 0.000000 -1.000000 0.000000
vn 0.000000 -1.000000 0.000000
vn 0.000000 -1.000000 0.000000
vn 0.000000 -1.000000 0.000000
vn 0.000000 -1.000000 0.000000
vn 0.000000 1.000000 -0.000000
vn 0.000000 1.000000 -0.000000
vn 0.000000 1.000000 -0.000000
vn 0.000000 1.000000 -0.000000
vn 0.000000 1.000000 -0.000000
vn 0.000000 1.000000 -0.000000
vn 0.000000 1.000000 -0.000000
vn 0.000000 1.000000 -0.000000
vn 0.000000 1.000000 -0.000000
vn 0.000000 1.000000 -0.000000
vn 0.000000 1.000000 -0.000000
vn 0.000000 1.000000 -0.000000
vn 0.000000 1.000000 -0.000000
vn 0.000000 1.000000 -0.000000
vn 0.000000 1.000000 -0.000000
vn 0.000000 1.000000 -0.000000
vn 0.000000 1.000000 -0.000000
vn 0.000000 1.000000 -0.000000
vn 0.000000 1.000000 -0.000000
vn 0.000000 -0.000000 -1.000000
vn 0.000000 -0.000000 -1.000000
vn 0.000000 -0.000000 -1.000000
vn 0.000000 -0.000000 -1.000000
vn 1.000000 0.000000 0.000000
vn 1.000000 0.000000 0.000000
vn 1.000000 0.000000 0.000000
vn 1.000000 0.000000 0.000000
vn -1.000000 0.000000 0.000000
vn -1.000000 0.000000 0.000000
vn -1.000000 0.000000 0.000000
vn -1.000000 0.000000 0.000000
vn -0.843444 0.000000 0.537217
vn -0.843444 0.000000 0.537217
vn -0.843444 0.000000 0.537217
vn -0.843444 0.000000 0.537217
vn 0.845237 0.000000 0.534391
vn 0.845237 0.000000 0.534391
vn 0.845237 0.000000 0.534391
vn 0.845237 0.000000 0.534391
vn -0.845059 -0.000000 -0.534673
vn -0.845059 -0.000000 -0.534673
vn -0.845059 -0.000000 -0.534673
vn -0.845059 -0.000000 -0.534673
vn 0.838805 -0.000000 -0.544432
vn 0.838805 -0.000000 -0.544432
vn 0.838805 -0.000000 -0.544432
vn 0.838805 -0.000000 -0.544432
vn 1.000000 0.000000 0.000000
vn 1.000000 0.000000 0.000000
vn 1.000000 0.000000 0.000000
vn 1.000000 0.000000 0.000000
vn 0.000000 0.000000 1.000000
vn 0.000000 0.000000 1.000000
vn 0.000000 0.000000 1.000000
vn 0.000000 0.000000 1.000000
vn -1.000000 0.000000 0.000000
vn -1.000000 0.000000 0.000000
vn -1.000000 0.000000 0.000000
vn -1.000000 0.000000 0.000000
vn 1.000000 0.000000 0.000000
vn 1.000000 0.000000 0.000000
vn 1.000000 0.000000 0.000000
vn 1.000000 0.000000 0.000000
vn 0.000000 0.000000 1.000000
vn 0.000000 0.000000 1.000000
vn 0.000000 0.000000 1.000000
vn 0.000000 0.000000 1.000000
vn -1.000000 0.000000 0.000000
vn -1.000000 0.000000 0.000000
vn -1.000000 0.000000 0.000000
vn -1.000000 0.000000 0.000000
s off
g why:Trim_Char_Y_1_1 why:Trim_Text_Y_1_1 why:polySurface1
usemtl why:initialShadingGroup
f 14/35/1 15/36/2 16/37/3 17/38/4
f 18/43/5 19/39/6 20/40/7 21/41/8 22/42/9 17/38/10 16/37/11
f 22/47/12 21/44/13 23/45/14 24/46/15
f 19/51/16 18/48/17 25/49/18 26/50/19
f 6/18/20 5/21/21 8/20/22 7/19/23
f 9/22/24 8/20/25 5/21/26 4/26/27 3/25/28 2/24/29 1/23/30
f 4/27/31 11/30/32 10/29/33 3/28/34
f 1/31/35 13/34/36 12/33/37 9/32/38
f 6/6/39 7/7/40 15/36/41 14/35/42
f 7/7/43 8/8/44 16/37/45 15/36/46
f 5/5/47 6/6/48 14/35/49 17/38/50
f 1/1/51 2/2/52 20/40/53 19/39/54
f 2/2/55 3/3/56 21/41/57 20/40/58
f 4/4/59 5/5/60 17/38/61 22/42/62
f 8/8/63 9/9/64 18/43/65 16/37/66
f 3/11/67 10/12/68 23/45/69 21/44/70
f 10/12/71 11/13/72 24/46/73 23/45/74
f 11/13/75 4/10/76 22/47/77 24/46/78
f 9/15/79 12/16/80 25/49/81 18/48/82
f 12/16/83 13/17/84 26/50/85 25/49/86
f 13/17/87 1/14/88 19/51/89 26/50/90
